<?xml version="1.0" standalone="no"?>
<!DOCTYPE svg PUBLIC "-//W3C//DTD SVG 20010904//EN"
 "http://www.w3.org/TR/2001/REC-SVG-20010904/DTD/svg10.dtd">
<svg version="1.0" xmlns="http://www.w3.org/2000/svg"
 width="923.000000pt" height="923.000000pt" viewBox="0 0 923.000000 923.000000"
 preserveAspectRatio="xMidYMid meet">
<metadata>
Created by potrace 1.11, written by Peter Selinger 2001-2013
</metadata>
<g transform="translate(0.000000,923.000000) scale(0.100000,-0.100000)"
fill="#000000" stroke="none">
<path d="M6188 7269 c-3 -24 -5 -707 -4 -1517 1 -1281 -1 -1471 -13 -1467 -32
12 -169 45 -221 53 -64 9 -264 8 -330 -2 -252 -40 -467 -151 -650 -335 -298
-300 -409 -686 -325 -1126 13 -63 61 -193 102 -274 114 -222 307 -416 523
-526 52 -26 168 -73 200 -80 8 -2 47 -11 85 -20 106 -25 337 -27 448 -5 356
74 634 277 814 596 75 133 136 330 147 479 2 28 4 822 5 1765 l1 1715 540 -1
540 -2 0 389 0 389 -343 0 c-189 0 -607 3 -929 7 l-585 6 -5 -44z"/>
<path d="M1190 6911 l0 -389 2095 0 c1152 -1 2096 2 2096 6 1 4 2 179 3 390
l1 382 -2097 0 -2098 0 0 -389z"/>
<path d="M1207 5832 c-16 -3 -17 -36 -17 -388 0 -211 3 -385 8 -385 4 -1 945
-2 2090 -3 1381 -1 2086 2 2091 9 10 13 8 751 -2 761 -7 7 -4133 13 -4170 6z"/>
<path d="M1200 4291 c-1 -113 -1 -583 0 -648 l0 -63 1368 0 1368 0 -2 383 c-1
210 -2 385 -3 388 0 3 -615 6 -1366 6 l-1365 0 0 -66z"/>
</g>
</svg>
