<svg xmlns="http://www.w3.org/2000/svg" xmlns:xlink="http://www.w3.org/1999/xlink" version="1.1" x="0px" y="0px" viewBox="0 0 1024 1280" style="enable-background:new 0 0 1024 1024;" xml:space="preserve"><g><rect x="51.5" y="200.6" width="544.4" height="85"/><g><path d="M595.9,275.7c-18.2,0-36.3,0-54.5,0c-43.2,0-86.5,0-129.7,0c-52.4,0-104.9,0-157.3,0c-45.3,0-90.6,0-136,0    c-15,0-29.9,0-44.9,0c-7,0-14.1-0.5-21.1,0c-0.3,0-0.6,0-1,0c3.3,3.3,6.7,6.7,10,10c0-28.3,0-56.7,0-85c-3.3,3.3-6.7,6.7-10,10    c18.2,0,36.3,0,54.5,0c43.2,0,86.5,0,129.7,0c52.4,0,104.9,0,157.3,0c45.3,0,90.6,0,136,0c15,0,29.9,0,44.9,0c7,0,14.1,0.5,21.1,0    c0.3,0,0.6,0,1,0c-3.3-3.3-6.7-6.7-10-10c0,28.3,0,56.7,0,85c0,12.9,20,12.9,20,0c0-28.3,0-56.7,0-85c0-5.4-4.6-10-10-10    c-18.2,0-36.3,0-54.5,0c-43.2,0-86.5,0-129.7,0c-52.4,0-104.9,0-157.3,0c-45.3,0-90.6,0-136,0c-22,0-44-0.7-66,0c-0.3,0-0.6,0-1,0    c-5.4,0-10,4.6-10,10c0,28.3,0,56.7,0,85c0,5.4,4.6,10,10,10c18.2,0,36.3,0,54.5,0c43.2,0,86.5,0,129.7,0c52.4,0,104.9,0,157.3,0    c45.3,0,90.6,0,136,0c22,0,44,0.7,66,0c0.3,0,0.6,0,1,0C608.8,295.7,608.8,275.7,595.9,275.7z"/></g></g><g><rect x="51.5" y="398.8" width="544.4" height="85"/><g><path d="M595.9,473.8c-18.2,0-36.3,0-54.5,0c-43.2,0-86.5,0-129.7,0c-52.4,0-104.9,0-157.3,0c-45.3,0-90.6,0-136,0    c-15,0-29.9,0-44.9,0c-7,0-14.1-0.5-21.1,0c-0.3,0-0.6,0-1,0c3.3,3.3,6.7,6.7,10,10c0-28.3,0-56.7,0-85c-3.3,3.3-6.7,6.7-10,10    c18.2,0,36.3,0,54.5,0c43.2,0,86.5,0,129.7,0c52.4,0,104.9,0,157.3,0c45.3,0,90.6,0,136,0c15,0,29.9,0,44.9,0c7,0,14.1,0.5,21.1,0    c0.3,0,0.6,0,1,0c-3.3-3.3-6.7-6.7-10-10c0,28.3,0,56.7,0,85c0,12.9,20,12.9,20,0c0-28.3,0-56.7,0-85c0-5.4-4.6-10-10-10    c-18.2,0-36.3,0-54.5,0c-43.2,0-86.5,0-129.7,0c-52.4,0-104.9,0-157.3,0c-45.3,0-90.6,0-136,0c-22,0-44-0.7-66,0c-0.3,0-0.6,0-1,0    c-5.4,0-10,4.6-10,10c0,28.3,0,56.7,0,85c0,5.4,4.6,10,10,10c18.2,0,36.3,0,54.5,0c43.2,0,86.5,0,129.7,0c52.4,0,104.9,0,157.3,0    c45.3,0,90.6,0,136,0c22,0,44,0.7,66,0c0.3,0,0.6,0,1,0C608.8,493.8,608.8,473.8,595.9,473.8z"/></g></g><g><rect x="51.5" y="597" width="348.5" height="85"/><g><path d="M400,672c-11.5,0-23.1,0-34.6,0c-27.7,0-55.4,0-83.1,0c-33.5,0-67.1,0-100.6,0c-29,0-58,0-87.1,0    c-9.6,0-19.2,0-28.8,0c-4.5,0-9.2-0.4-13.7,0c-0.2,0-0.4,0-0.6,0c3.3,3.3,6.7,6.7,10,10c0-28.3,0-56.7,0-85    c-3.3,3.3-6.7,6.7-10,10c11.5,0,23.1,0,34.6,0c27.7,0,55.4,0,83.1,0c33.5,0,67.1,0,100.6,0c29,0,58,0,87.1,0c9.6,0,19.2,0,28.8,0    c4.5,0,9.2,0.4,13.7,0c0.2,0,0.4,0,0.6,0c-3.3-3.3-6.7-6.7-10-10c0,28.3,0,56.7,0,85c0,12.9,20,12.9,20,0c0-28.3,0-56.7,0-85    c0-5.4-4.6-10-10-10c-11.5,0-23.1,0-34.6,0c-27.7,0-55.4,0-83.1,0c-33.5,0-67.1,0-100.6,0c-29,0-58,0-87.1,0    c-14.1,0-28.4-0.6-42.5,0c-0.2,0-0.4,0-0.6,0c-5.4,0-10,4.6-10,10c0,28.3,0,56.7,0,85c0,5.4,4.6,10,10,10c11.5,0,23.1,0,34.6,0    c27.7,0,55.4,0,83.1,0c33.5,0,67.1,0,100.6,0c29,0,58,0,87.1,0c14.1,0,28.4,0.6,42.5,0c0.2,0,0.4,0,0.6,0    C412.9,692,412.9,672,400,672z"/></g></g><g><rect x="723.5" y="200.6" width="230.4" height="85"/><g><path d="M953.9,275.7c-26,0-51.9,0-77.9,0c-41.4,0-82.7,0-124.1,0c-9.5,0-19,0-28.5,0c3.3,3.3,6.7,6.7,10,10    c0-28.3,0-56.7,0-85c-3.3,3.3-6.7,6.7-10,10c26,0,51.9,0,77.9,0c41.4,0,82.7,0,124.1,0c9.5,0,19,0,28.5,0c-3.3-3.3-6.7-6.7-10-10    c0,28.3,0,56.7,0,85c0,12.9,20,12.9,20,0c0-28.3,0-56.7,0-85c0-5.4-4.6-10-10-10c-26,0-51.9,0-77.9,0c-41.4,0-82.7,0-124.1,0    c-9.5,0-19,0-28.5,0c-5.4,0-10,4.6-10,10c0,28.3,0,56.7,0,85c0,5.4,4.6,10,10,10c26,0,51.9,0,77.9,0c41.4,0,82.7,0,124.1,0    c9.5,0,19,0,28.5,0C966.8,295.7,966.8,275.7,953.9,275.7z"/></g></g><g><rect x="723.5" y="200.6" width="85" height="544.4"/><g><path d="M798.5,200.6c0,18.2,0,36.3,0,54.5c0,43.2,0,86.5,0,129.7c0,52.4,0,104.9,0,157.3c0,45.3,0,90.6,0,136    c0,15,0,29.9,0,44.9c0,7-0.5,14.1,0,21.1c0,0.3,0,0.6,0,1c3.3-3.3,6.7-6.7,10-10c-28.3,0-56.7,0-85,0c3.3,3.3,6.7,6.7,10,10    c0-18.2,0-36.3,0-54.5c0-43.2,0-86.5,0-129.7c0-52.4,0-104.9,0-157.3c0-45.3,0-90.6,0-136c0-15,0-29.9,0-44.9c0-7,0.5-14.1,0-21.1    c0-0.3,0-0.6,0-1c-3.3,3.3-6.7,6.7-10,10c28.3,0,56.7,0,85,0c12.9,0,12.9-20,0-20c-28.3,0-56.7,0-85,0c-5.4,0-10,4.6-10,10    c0,18.2,0,36.3,0,54.5c0,43.2,0,86.5,0,129.7c0,52.4,0,104.9,0,157.3c0,45.3,0,90.6,0,136c0,22-0.7,44,0,66c0,0.3,0,0.6,0,1    c0,5.4,4.6,10,10,10c28.3,0,56.7,0,85,0c5.4,0,10-4.6,10-10c0-18.2,0-36.3,0-54.5c0-43.2,0-86.5,0-129.7c0-52.4,0-104.9,0-157.3    c0-45.3,0-90.6,0-136c0-22,0.7-44,0-66c0-0.3,0-0.6,0-1C818.5,187.8,798.5,187.8,798.5,200.6z"/></g></g><g><circle cx="660.3" cy="745.2" r="148.3"/><g><path d="M798.5,745.2c-0.3,56.9-36.2,110-90,129.6c-55.3,20.2-117.7,3.2-155.3-42c-37-44.5-41.1-109.8-11.4-159.1    c29.7-49.2,88.8-75.6,145.3-64.2C743.9,621,787.9,667.3,797,724.4C798.1,731.3,798.5,738.3,798.5,745.2c0.1,12.9,20.1,12.9,20,0    c-0.3-66.3-42.4-126.2-104.7-148.9c-61.5-22.5-133.5-2.8-175.1,47.7C496.2,695.5,490,770.1,525,827.4    c34.5,56.6,101.9,85.8,166.8,73c63.4-12.5,114.7-65.7,124.6-129.6c1.3-8.5,2.1-16.9,2.1-25.5C818.6,732.4,798.6,732.3,798.5,745.2    z"/></g></g><text x="0" y="1039" fill="#000000" font-size="5px" font-weight="bold" font-family="'Helvetica Neue', Helvetica, Arial-Unicode, Arial, Sans-serif">Created by shashank singh</text><text x="0" y="1044" fill="#000000" font-size="5px" font-weight="bold" font-family="'Helvetica Neue', Helvetica, Arial-Unicode, Arial, Sans-serif">from the Noun Project</text></svg>